<mxfile host="app.diagrams.net" modified="2024-02-06T13:09:04.833Z" agent="Mozilla/5.0 (X11; Linux x86_64; rv:104.0) Gecko/20100101 Firefox/104.0" version="21.7.2" etag="wBIbQN1LbHSoxospQ5sx" type="github">
  <diagram name="PÃ¡gina-1" id="NEhdjH8bCYYg-WwDa9P4">
    <mxGraphModel>
      <root>
        <mxCell id="0" />
        <mxCell id="1" parent="0" />
      </root>
    </mxGraphModel>
  </diagram>
</mxfile>
